<?xml version="1.0" encoding="UTF-8" standalone="no"?>
<svg
   width="32"
   height="32"
   fill="#000000"
   viewBox="0 0 256 256"
   version="1.1"
   id="svg1"
   sodipodi:docname="farquest.svg"
   inkscape:version="1.3.2 (091e20ef0f, 2023-11-25, custom)"
   inkscape:export-filename="farcaster.svg.2024_05_03_22_34_30.0.png"
   inkscape:export-xdpi="3072"
   inkscape:export-ydpi="3072"
   xmlns:inkscape="http://www.inkscape.org/namespaces/inkscape"
   xmlns:sodipodi="http://sodipodi.sourceforge.net/DTD/sodipodi-0.dtd"
   xmlns="http://www.w3.org/2000/svg"
   xmlns:svg="http://www.w3.org/2000/svg">
  <defs
     id="defs1">
    <inkscape:path-effect
       effect="fillet_chamfer"
       id="path-effect6"
       is_visible="true"
       lpeversion="1"
       nodesatellites_param="F,0,0,1,0,4,0,1 @ F,0,0,1,0,4,0,1 @ F,0,0,1,0,4,0,1 @ F,0,0,1,0,4,0,1 @ F,0,0,1,0,4,0,1 @ F,0,0,1,0,4,0,1 @ F,0,0,1,0,4,0,1 @ F,0,0,1,0,4,0,1 @ F,0,0,1,0,4,0,1 @ F,0,0,1,0,4,0,1 @ F,0,0,1,0,4,0,1 @ F,0,0,1,0,4,0,1 @ F,0,0,1,0,4,0,1 @ F,0,0,1,0,4,0,1 @ F,0,0,1,0,4,0,1 @ F,0,0,1,0,4,0,1"
       radius="4"
       unit="px"
       method="auto"
       mode="F"
       chamfer_steps="1"
       flexible="false"
       use_knot_distance="true"
       apply_no_radius="true"
       apply_with_radius="true"
       only_selected="false"
       hide_knots="false" />
    <inkscape:path-effect
       effect="fillet_chamfer"
       id="path-effect4"
       is_visible="true"
       lpeversion="1"
       nodesatellites_param="F,0,0,1,0,4,0,1 @ F,0,0,1,0,4,0,1 @ F,0,0,1,0,4,0,1 @ F,0,0,1,0,4,0,1 @ F,0,0,1,0,4,0,1 @ F,0,0,1,0,4,0,1 @ F,0,0,1,0,4,0,1 @ F,0,0,1,0,4,0,1 @ F,0,0,1,0,4,0,1 @ F,0,0,1,0,4,0,1 @ F,0,0,1,0,4,0,1 @ F,0,0,1,0,4,0,1 @ F,0,0,1,0,4,0,1 @ F,0,0,1,0,4,0,1 @ F,0,0,1,0,4,0,1 @ F,0,0,1,0,4,0,1 @ F,0,0,1,0,4,0,1"
       radius="4"
       unit="px"
       method="auto"
       mode="F"
       chamfer_steps="1"
       flexible="false"
       use_knot_distance="true"
       apply_no_radius="true"
       apply_with_radius="true"
       only_selected="false"
       hide_knots="false" />
    <inkscape:path-effect
       effect="fillet_chamfer"
       id="path-effect5"
       is_visible="true"
       lpeversion="1"
       nodesatellites_param="F,0,0,1,0,0,0,1 @ F,0,0,1,0,4,0,1 @ F,0,0,1,0,4,0,1 @ F,0,0,1,0,4,0,1"
       radius="4"
       unit="px"
       method="auto"
       mode="F"
       chamfer_steps="1"
       flexible="false"
       use_knot_distance="true"
       apply_no_radius="true"
       apply_with_radius="true"
       only_selected="false"
       hide_knots="false" />
  </defs>
  <sodipodi:namedview
     id="namedview1"
     pagecolor="#505050"
     bordercolor="#eeeeee"
     borderopacity="1"
     inkscape:showpageshadow="0"
     inkscape:pageopacity="0"
     inkscape:pagecheckerboard="0"
     inkscape:deskcolor="#d1d1d1"
     inkscape:zoom="22.627417"
     inkscape:cx="15.423767"
     inkscape:cy="13.678097"
     inkscape:window-width="3840"
     inkscape:window-height="1014"
     inkscape:window-x="0"
     inkscape:window-y="0"
     inkscape:window-maximized="1"
     inkscape:current-layer="svg1" />
  <g
     id="g6"
     transform="matrix(0.31527872,0,0,0.31527872,-31.040616,-29.639518)"
     style="stroke-width:25.37437351;stroke-dasharray:none;fill:none;fill-opacity:1;stroke:#ffffff;stroke-opacity:1">
    <path
       d="m 130.02239,257.16907 26.62222,90.10586 a 5.352755,5.352755 36.76998 0 0 5.13339,3.83607 h 16.444 a 4,4 45 0 1 4,4 l 0,387.556 c 0,2.20914 -1.80783,3.96276 -3.97884,4.35519 -9.0834,1.64193 -16.24605,8.80459 -17.88797,17.88798 C 159.96276,767.08117 160,770.67986 160,772.889 v 18.667 a 4,4 135 0 1 -4,4 c -0.24523,0 -2.25183,-0.0372 -4.42285,0.35519 -9.08356,1.64191 -16.24686,8.80458 -17.88893,17.88799 -0.39246,2.17099 -0.35522,5.76968 -0.35522,7.97882 v 18.667 a 4,4 45 0 0 4,4 h 240.889 a 4,4 135 0 0 4,-4 l 0,-18.667 c 0,-2.20914 0.0372,-5.80783 -0.35519,-7.97884 -1.64193,-9.0834 -8.80459,-16.24605 -17.88798,-17.88797 -2.171,-0.39243 -5.76969,-0.35519 -7.97883,-0.35519 a 2.8457983,2.8457983 83.666097 0 1 -0.444,-4 v -18.667 c 0,-2.20914 -0.0834,-5.7969 -0.48091,-7.96874 -3.86817,-21.1369 -26.63284,-18.75786 -44.40875,-18.3106 -2.2083,0.0556 -3.99934,-1.73352 -3.99934,-3.94266 V 257.333 a 4,4 45 0 0 -4,-4 H 132.889 a 2.9891149,2.9891149 126.76998 0 0 -2.86661,3.83607 z"
       fill="black"
       id="path2"
       style="fill:none;stroke:#ffffff;stroke-width:25.37437351;stroke-dasharray:none;stroke-opacity:1;fill-opacity:1"
       sodipodi:nodetypes="ccccscssccsscsccc" />
    <path
       d="m 671.57715,747.02219 c -9.08356,1.64191 -16.24686,8.80458 -17.88893,17.88799 -0.39246,2.17099 -0.35522,5.76968 -0.35522,7.97882 v 18.667 a 4,4 135 0 1 -4,4 c -0.24523,0 -2.25183,-0.0372 -4.42284,0.35519 -9.0834,1.64193 -16.24605,8.80459 -17.88797,17.88798 -0.39243,2.171 -0.35519,5.76969 -0.35519,7.97883 v 18.667 a 4,4 45 0 0 4,4 h 240.889 a 4,4 135 0 0 4,-4 l 0,-18.667 c 0,-2.20914 0.0372,-5.80784 -0.35523,-7.97884 -1.64208,-9.08341 -8.80538,-16.24607 -17.88894,-17.88798 -2.17101,-0.39242 -5.76969,-0.35518 -7.97883,-0.35518 a 2.8457983,2.8457983 83.666097 0 1 -0.444,-4 l 0,-18.667 c 0,-2.20914 0.0372,-5.80783 -0.35519,-7.97884 -1.64193,-9.0834 -8.80459,-16.24605 -17.88798,-17.88797 -2.171,-0.39243 -3.97883,-2.14605 -3.97883,-4.35519 V 355.111 a 4,4 135 0 1 4,-4 h 16.444 a 5.352755,5.352755 143.23002 0 0 5.13339,-3.83607 l 26.62222,-90.10586 A 2.9891149,2.9891149 53.23002 0 0 876,253.333 H 706.222 a 4,4 135 0 0 -4,4 v 485.334 a 4,4 135 0 1 -4,4 h -18.666 c -2.20914,0 -5.80783,-0.0372 -7.97885,0.35519 z"
       fill="black"
       id="path3"
       style="fill:none;stroke:#ffffff;stroke-width:25.37437351;stroke-dasharray:none;stroke-opacity:1;fill-opacity:1"
       sodipodi:nodetypes="sscssccsscsccccccs" />
    <path
       style="fill:none;stroke:#ffffff;stroke-width:25.3744;stroke-dasharray:none;stroke-opacity:1;fill-opacity:1"
       d="m 257.53646,248.683 0.23117,-89.12701 A 4.0103881,4.0103881 135.0743 0 1 261.778,155.556 h 476.444 a 3.9732705,3.9732705 45.192077 0 1 3.97318,3.99991 l -0.62876,93.77709"
       id="path1-2"
       sodipodi:nodetypes="cccc" />
  </g>
  <path
     d="m 141.33036,23.019995 0.18595,23.91177 17.07985,-0.13283 c 5.34024,-0.0445 9.70379,4.25172 9.74235,9.59201 l 0.08,10.84146 c 0.0421,5.33694 -4.25084,9.69719 -9.58779,9.73808 l -8.23247,0.064 8.69158,62.794115 c 0.20553,1.48958 -0.29425,2.98992 -1.352,4.05868 l -27.11518,27.54023 c -1.87191,1.90125 -4.93066,1.92504 -6.83192,0.0531 L 96.450455,144.36542 c -1.068583,-1.05188 -1.588166,-2.54032 -1.406337,-4.02869 l 7.713772,-62.921845 -8.241088,0.0556 c -5.340251,0.0445 -9.703813,-4.25172 -9.742367,-9.59202 l -0.08003,-10.84146 c -0.04202,-5.3368 4.250805,-9.69691 9.587613,-9.73789 l 17.079842,-0.13283 -0.18596,-23.91179 m 9.66302,-0.0624 0.18597,23.91177 10.8286,-0.0842 -0.18165,-23.90757 m 26.99526,33.35826 -64.301367,0.49578 0.08026,10.84985 64.309677,-0.50423 z m -9.28355,82.333505 -8.53354,-61.689365 -9.34265,0.0727 0.33444,42.989775 c 0.0347,6.42962 -9.60335,6.50031 -9.66294,0.0709 l -0.3387,-42.985475 -9.33829,0.0768 -7.57715,61.810445 22.40227,22.05654 z"
     id="path1"
     style="fill:#ffffff;fill-opacity:1;stroke:none;stroke-width:5.12346;stroke-dasharray:none;stroke-opacity:1"
     sodipodi:nodetypes="ccccccccccccccccccccccccccccccccccccccc" />
  <path
     style="fill:none;stroke:#ffffff;stroke-width:8;stroke-linecap:round;stroke-linejoin:round;stroke-dasharray:none;stroke-dashoffset:1999.99;stroke-opacity:1"
     d="m 75.78724,202.47326 c 0,0 -6.560775,-89.30862 28.89486,-98.94202"
     id="path4"
     sodipodi:nodetypes="cc" />
  <path
     style="fill:none;stroke:#ffffff;stroke-width:8;stroke-linecap:round;stroke-linejoin:round;stroke-dasharray:none;stroke-dashoffset:1999.99;stroke-opacity:1"
     d="m 180.27496,202.47326 c 0,0 6.56078,-89.30862 -28.89486,-98.94202"
     id="path4-5"
     sodipodi:nodetypes="cc" />
</svg>
